<svg width="20" height="20" viewBox="0 0 20 20" fill="none" xmlns="http://www.w3.org/2000/svg">
<path d="M2.37779 16.0203L2.45988 15.7756L2.30795 15.5669C1.16951 14.0035 0.5 12.0785 0.5 10C0.5 4.76102 4.76001 0.5 9.9975 0.5H10.0025C15.2399 0.5 19.5 4.76223 19.5 10C19.5 15.2378 15.2399 19.5 10.0025 19.5C8.06975 19.5 6.27911 18.9255 4.77738 17.9307L4.57744 17.7982L4.349 17.8712L1.44548 18.7994L2.37779 16.0203Z" stroke="#7D97F4"/>
<path d="M15.8217 14.1212C15.5804 14.8025 14.6229 15.3675 13.8592 15.5325C13.3367 15.6437 12.6542 15.7325 10.3567 14.78C7.41793 13.5625 5.52543 10.5762 5.37793 10.3825C5.23668 10.1887 4.19043 8.80125 4.19043 7.36625C4.19043 5.93125 4.91918 5.2325 5.21293 4.9325C5.45418 4.68625 5.85293 4.57375 6.23543 4.57375C6.35918 4.57375 6.47043 4.58 6.57043 4.585C6.86418 4.5975 7.01168 4.615 7.20543 5.07875C7.44668 5.66 8.03418 7.095 8.10418 7.2425C8.17543 7.39 8.24668 7.59 8.14668 7.78375C8.05293 7.98375 7.97043 8.0725 7.82293 8.2425C7.67543 8.4125 7.53543 8.5425 7.38793 8.725C7.25293 8.88375 7.10043 9.05375 7.27043 9.3475C7.44043 9.635 8.02793 10.5937 8.89293 11.3637C10.0092 12.3575 10.9142 12.675 11.2379 12.81C11.4792 12.91 11.7667 12.8862 11.9429 12.6987C12.1667 12.4575 12.4429 12.0575 12.7242 11.6637C12.9242 11.3812 13.1767 11.3462 13.4417 11.4462C13.7117 11.54 15.1404 12.2462 15.4342 12.3925C15.7279 12.54 15.9217 12.61 15.9929 12.7337C16.0629 12.8575 16.0629 13.4387 15.8217 14.1212Z" stroke="#7D97F4"/>
</svg>
